<?xml version="1.0" encoding="utf-8"?>
<!-- Generator: Adobe Illustrator 25.2.0, SVG Export Plug-In . SVG Version: 6.00 Build 0)  -->
<svg version="1.1" id="Layer_1" xmlns="http://www.w3.org/2000/svg" xmlns:xlink="http://www.w3.org/1999/xlink" x="0px" y="0px"
	 viewBox="0 0 483 187" style="enable-background:new 0 0 483 187;" xml:space="preserve">
<style type="text/css">
	.st0{fill:#1FACE1;}
	.st1{enable-background:new    ;}
	.st2{fill:#FFFFFF;}
</style>
<path class="st0" d="M212.9,143.3c-6.1-3.9-12.1-7.8-18.2-11.7c-5-3.2-6.1-8.4-2.9-13.4c1.3-2,2.6-4.1,3.9-6c2.8-4,8.1-5.1,12.2-2.5
	c12.6,8.1,25.2,16.2,37.8,24.4c4.1,2.7,5.3,8,2.7,12.2c-1.3,2.2-2.7,4.4-4.2,6.5c-2.9,4.3-8.2,5.4-12.6,2.7
	C225.4,151.4,219.2,147.3,212.9,143.3z"/>
<g class="st1">
	<path class="st0" d="M0.2,154.5V120l79-113H127v110.5h20.5v37H127V187H84.2v-32.5H0.2z M87.2,54l-42,63.5h42V54z"/>
</g>
<g class="st1">
	<path class="st2" d="M185.1,25.5c11.1-16.5,29-24.8,53.6-24.8c24.7,0,42.5,8.2,53.6,24.8C303.5,42,309,64.6,309,93.2
		c0,29-5.5,51.8-16.6,68.2c-11.1,16.5-29,24.8-53.6,24.8c-24.7,0-42.5-8.2-53.6-24.8c-11.1-16.5-16.6-39.2-16.6-68.2
		C168.5,64.6,174,42,185.1,25.5z M261.5,54.4c-3.7-9.1-11.2-13.6-22.8-13.6c-11.5,0-19.1,4.5-22.8,13.6c-3.7,9.1-5.5,22-5.5,38.9
		c0,11.3,0.7,20.7,2,28.1c1.3,7.4,4,13.4,8.1,18c4.1,4.6,10.1,6.9,18.1,6.9c8,0,14-2.3,18.1-6.9c4.1-4.6,6.8-10.6,8.1-18
		c1.3-7.4,2-16.8,2-28.1C267,76.4,265.2,63.5,261.5,54.4z"/>
</g>
<g>
	<path class="st0" d="M332.5,154.5V120l79-113h47.8v110.5h20.5v37h-20.5V187h-42.8v-32.5H332.5z M419.5,54l-42,63.5h42V54z"/>
</g>
<g>
	<g>
		<path class="st0" d="M242.4,127.8c-9.2-5.9-18.3-11.8-27.5-17.7c8.9-15.2,18.5-29.9,28.6-44.3c9.2,5.9,18.2,11.8,27.5,17.7
			C262,98.6,252.5,113.3,242.4,127.8z"/>
		<path class="st0" d="M272.9,50.3c6.1,3.9,12.1,7.8,18.2,11.7c5.1,3.3,6.2,8.4,2.9,13.5c-1.3,2-2.5,4-3.9,5.9
			c-2.7,4-8.1,5.2-12.2,2.6c-12.7-8.1-25.4-16.3-38-24.5c-3.9-2.6-5.1-7.9-2.6-11.9c1.4-2.4,2.9-4.7,4.5-7c2.8-4,8.1-5.1,12.2-2.5
			C260.4,42.1,266.7,46.2,272.9,50.3C272.9,50.3,272.9,50.3,272.9,50.3z"/>
		<path class="st0" d="M282.6,52.5c-5.3-3.4-10.4-6.7-15.6-10c1.4-2.1,2.5-4.2,4-6.2c1.3-1.6,3.9-1.9,5.7-0.7
			c2.7,1.6,5.3,3.3,7.9,5.1c1.9,1.3,2.6,3.8,1.7,5.9c-0.2,0.5-0.5,0.9-0.8,1.3C284.6,49.4,283.6,50.9,282.6,52.5z"/>
	</g>
</g>
</svg>
