<svg 
 xmlns="http://www.w3.org/2000/svg"
 xmlns:xlink="http://www.w3.org/1999/xlink"
 width="15px" height="15px">
<path fill-rule="evenodd"  fill="rgb(255, 255, 255)"
 d="M14.870,14.233 L11.224,10.588 C12.202,9.464 12.794,7.997 12.794,6.394 C12.794,2.865 9.923,-0.002 6.397,-0.002 C2.867,-0.002 -0.000,2.869 -0.000,6.394 C-0.000,9.920 2.871,12.790 6.397,12.790 C8.000,12.790 9.467,12.198 10.592,11.220 L14.237,14.866 C14.324,14.952 14.440,14.998 14.554,14.998 C14.667,14.998 14.783,14.955 14.870,14.866 C15.043,14.693 15.043,14.406 14.870,14.233 ZM0.895,6.394 C0.895,3.361 3.363,0.897 6.393,0.897 C9.427,0.897 11.892,3.364 11.892,6.394 C11.892,9.424 9.427,11.896 6.393,11.896 C3.363,11.896 0.895,9.427 0.895,6.394 Z"/>
</svg>