<?xml version="1.0" encoding="utf-8"?>
<!-- Generator: Adobe Illustrator 25.2.0, SVG Export Plug-In . SVG Version: 6.00 Build 0)  -->
<svg version="1.1" id="Layer_1" xmlns="http://www.w3.org/2000/svg" xmlns:xlink="http://www.w3.org/1999/xlink" x="0px" y="0px"
	 viewBox="0 0 500 500" style="enable-background:new 0 0 500 500;" xml:space="preserve">
<style type="text/css">
	.st0{fill:#1FACE1;}
</style>
<path class="st0" d="M5,433.9C5,354.6,5,275.3,5,196c162.9,0,325.8,0,488.9,0c0.1,1.6,0.1,2.5,0.1,3.5c0,76.1,0,152.2-0.1,228.3
	c0,3.8-0.5,7.6-1.5,11.3c-5.2,19.8-22,32.1-43.7,32.1c-105.9,0-211.7,0-317.6,0c-27.7,0-55.4,0.1-83.1,0
	c-18.9-0.1-35.2-11.9-41-29.5C6.3,439.1,5.7,436.5,5,433.9z M127.2,272.4c5.2,0,10.5,0.2,15.7,0c7.8-0.3,13.8-6.5,13.9-14.1
	c0.1-7.8-6-14.3-14.1-14.4c-10.3-0.2-20.6-0.2-31,0c-8,0.1-14.2,6.6-14.2,14.4c0,7.8,6.2,14,14.3,14.2
	C117.1,272.6,122.1,272.4,127.2,272.4z M249.6,272.4c4.9,0,9.8,0.1,14.8,0c8.5-0.2,14.7-6.2,14.8-14.2c0.1-8-6.2-14.3-14.6-14.4
	c-10-0.1-20-0.1-30,0c-8.4,0.1-14.6,6.5-14.6,14.4c0.1,7.8,6.3,13.9,14.4,14.1C239.4,272.5,244.5,272.4,249.6,272.4z M371.3,272.4
	c5.1,0,10.2,0.1,15.2,0c8.5-0.2,14.8-6.2,14.8-14.2c0.1-8-6.2-14.3-14.6-14.4c-10-0.1-20-0.1-30,0c-8.4,0.1-14.7,6.4-14.6,14.4
	c0.1,8,6.4,14,14.8,14.2C361.8,272.5,366.5,272.4,371.3,272.4z M127.3,304.9c-5.1,0-10.2-0.1-15.2,0c-8.1,0.2-14.3,6.4-14.4,14.2
	c-0.1,7.8,6.1,14.3,14.1,14.4c10.3,0.2,20.6,0.2,31,0c8.1-0.2,14.2-6.6,14.1-14.4c-0.1-7.8-6.2-14-14.3-14.2
	C137.4,304.8,132.4,304.9,127.3,304.9z M249.3,333.6c5.1,0,10.2,0.1,15.2,0c8.4-0.2,14.7-6.4,14.6-14.4c-0.1-8-6.3-14.1-14.8-14.2
	c-9.8-0.1-19.7-0.1-29.5,0c-8.5,0.1-14.8,6.2-14.8,14.2c-0.1,8.2,6.3,14.3,15.1,14.5C239.7,333.6,244.5,333.6,249.3,333.6z
	 M371.7,333.6c5.1,0,10.2,0.1,15.2,0c8.4-0.2,14.6-6.6,14.5-14.5c-0.1-7.8-6.3-13.9-14.5-14c-10-0.1-20-0.1-30,0
	c-8.4,0.1-14.7,6.3-14.7,14.3c0,8,6.3,14.1,14.7,14.3C361.8,333.7,366.7,333.6,371.7,333.6z M127.2,366.1c-4.9,0-9.8-0.1-14.8,0
	c-8.4,0.2-14.7,6.3-14.7,14.3c0,8,6.3,14.2,14.7,14.3c10,0.1,20,0.1,30,0c8.4-0.1,14.6-6.5,14.5-14.5c-0.1-7.8-6.3-13.9-14.4-14.1
	C137.3,366,132.3,366.1,127.2,366.1z M249,394.7c5.1,0,10.2,0.1,15.2,0c8.5-0.2,14.8-6.2,14.8-14.2c0.1-8-6.2-14.3-14.6-14.4
	c-10-0.1-20-0.1-30,0c-8.4,0.1-14.7,6.4-14.6,14.4c0.1,8,6.4,14,14.8,14.2C239.5,394.8,244.3,394.7,249,394.7z M372.3,366.1
	c-5.2,0-10.5-0.1-15.7,0c-8.1,0.2-14.3,6.4-14.4,14.2c-0.1,7.8,6.1,14.2,14.1,14.4c10.3,0.2,20.6,0.2,31,0
	c8.1-0.2,14.2-6.6,14.1-14.4c-0.1-7.8-6.2-14-14.3-14.2C382.1,365.9,377.2,366.1,372.3,366.1z"/>
<path class="st0" d="M5,105.3c0.7-2.6,1.3-5.2,2.2-7.8c5.7-17.2,21.8-29.2,40-29.4c11.6-0.2,23.2,0,35.2,0c0-7.8,0-15,0-22.3
	c0-9.3,5.8-15.8,14.2-15.9c8.5-0.1,14.5,6.4,14.5,16c0,24.2,0,48.4,0,72.6c0,9.8,5.6,16.3,14.1,16.4c8.7,0.1,14.5-6.5,14.5-16.5
	c0-16.2,0-32.5,0-48.7c0-0.3,0.1-0.6,0.3-1.4c31.5,0,63,0,95.2,0c0-8.4-0.1-16.3,0-24.2c0.2-7.5,5.7-13.4,13-14.1
	c7.1-0.7,13.9,4.3,15.3,11.5c0.4,1.8,0.3,3.8,0.3,5.7c0,24.2,0,48.4,0,72.6c0,6.3,2.7,11.1,8.4,13.8c5.2,2.5,10.3,1.7,14.8-1.8
	c3.9-3,5.5-7.2,5.5-12.1c0-15.3,0-30.6,0-45.8c0-1.7,0-3.4,0-5.5c31.9,0,63.3,0,95.5,0c0-5.2,0-10,0-14.9c0-2.7,0-5.4,0-8.1
	c0.1-8.9,6.1-15.3,14.2-15.3c8.2,0,14.4,6.3,14.4,15.2c0.1,24.4,0,48.7,0,73.1c0,1.9,0,3.9,0.4,5.7c1.7,7.1,8.3,11.8,15.2,11.1
	c7.4-0.7,12.9-6.7,13-14.6c0.1-15.4,0-30.9,0-46.3c0-1.7,0-3.5,0-5.1c18.8-4.3,40.6,9.5,46.7,29.4c0.9,3,1.4,6.2,1.8,9.3
	c0.3,2.4,0.2,4.8,0.2,7.2c0,17.3,0,34.7,0,52.7c-163.2,0-326.1,0-489,0C5,146.7,5,126,5,105.3z"/>
</svg>
