<svg xmlns="http://www.w3.org/2000/svg" xmlns:xlink="http://www.w3.org/1999/xlink" width="39.969" height="40" viewBox="0 0 39.969 40">
  <defs>
    <style>
      .cls-1 {
        fill: #82b53f;
        fill-rule: evenodd;
        filter: url(#filter);
      }
    </style>
    <filter id="filter" x="191.25" y="670.25" width="39.969" height="40" filterUnits="userSpaceOnUse">
      <feFlood result="flood" flood-color="#fff"/>
      <feComposite result="composite" operator="in" in2="SourceGraphic"/>
      <feBlend result="blend" in2="SourceGraphic"/>
    </filter>
  </defs>
  <path id="Forma_1" data-name="Forma 1" class="cls-1" d="M231.23,701.816a1.932,1.932,0,0,1-.593,1.692l-5.632,5.594a3.189,3.189,0,0,1-1,.721,4.052,4.052,0,0,1-1.207.381c-0.028,0-.113.007-0.254,0.02a5.38,5.38,0,0,1-.55.023,18.729,18.729,0,0,1-7.008-1.633,36.9,36.9,0,0,1-5.907-3.241,44.06,44.06,0,0,1-7.03-5.931,46.659,46.659,0,0,1-4.912-5.594,39.828,39.828,0,0,1-3.133-4.936,26.644,26.644,0,0,1-1.779-4.111,21.786,21.786,0,0,1-.8-3.178,10.539,10.539,0,0,1-.17-2.1c0.029-.509.043-0.79,0.043-0.846a4.075,4.075,0,0,1,.381-1.209,3.163,3.163,0,0,1,.719-1l5.632-5.635a1.873,1.873,0,0,1,1.355-.594,1.579,1.579,0,0,1,.974.319,2.889,2.889,0,0,1,.72.783l4.531,8.6a2.059,2.059,0,0,1,.212,1.482,2.648,2.648,0,0,1-.72,1.356l-2.075,2.076a0.711,0.711,0,0,0-.148.275,1.065,1.065,0,0,0-.064.318,7.647,7.647,0,0,0,.763,2.035,18.549,18.549,0,0,0,1.566,2.477,27.466,27.466,0,0,0,3.007,3.37,28.121,28.121,0,0,0,3.388,3.029,19.223,19.223,0,0,0,2.477,1.588,6.485,6.485,0,0,0,1.524.616l0.529,0.106a0.988,0.988,0,0,0,.276-0.064,0.691,0.691,0,0,0,.275-0.149l2.414-2.458a2.591,2.591,0,0,1,1.778-.677,2.236,2.236,0,0,1,1.143.253H222l8.172,4.831A2.135,2.135,0,0,1,231.23,701.816Z" transform="translate(-191.25 -670.25)"/>
</svg>
