<?xml version="1.0" encoding="utf-8"?>
<!-- Generator: Adobe Illustrator 25.2.0, SVG Export Plug-In . SVG Version: 6.00 Build 0)  -->
<svg version="1.1" id="Layer_1" xmlns="http://www.w3.org/2000/svg" xmlns:xlink="http://www.w3.org/1999/xlink" x="0px" y="0px"
	 viewBox="0 0 500 500" style="enable-background:new 0 0 500 500;" xml:space="preserve">
<style type="text/css">
	.st0{fill:#1FACE1;}
</style>
<path class="st0" d="M142.5,5c71.3,0,142.6,0,214,0c4.4,0.6,8.8,1.2,13.2,1.9c42.8,7,76.3,28.9,100.3,64.8c17,25.3,24.1,53.7,24,84
	c-0.1,35.2,0,70.3,0,105.5c0,20.1-2.8,39.6-10.4,58.3c-16,39.1-43.6,66.6-82.7,82.6c-20.8,8.6-42.7,10.6-65,10.4
	c-43.2-0.5-82.9,10.9-119.2,34.3c-16,10.4-29.9,23.1-43.2,36.7c-1.9,1.9-3.8,3.8-5.7,5.7c-4.5,4.4-9.7,6.1-15.7,3.6
	c-5.9-2.5-8.6-7.4-8.6-13.7c0-20.5,0-41.1,0-61.6c0-1.7,0-3.4,0-5.3c-1.2-0.2-2-0.3-2.7-0.4c-26.8-2.1-51.3-10.7-73.1-26.2
	c-28.5-20.2-47.9-47.2-57-81C8,294.8,6.8,284.5,5,274.4c0-43.6,0-87.2,0-130.9c0.2-1.1,0.6-2.1,0.7-3.2c1.8-24.8,9.5-47.6,23.1-68.3
	C49,41.4,76.7,20.6,112.2,10.7C122.1,8,132.4,6.9,142.5,5z M249.6,241.2c18-0.1,32.5-14.6,32.4-32.6c-0.1-17.8-14.9-32.6-32.6-32.5
	c-17.8,0.1-32.5,14.9-32.4,32.7C217.1,226.7,231.7,241.2,249.6,241.2z M143.7,241.2c18-0.1,32.4-14.6,32.3-32.6
	c-0.1-17.8-14.9-32.6-32.6-32.5c-17.8,0.1-32.5,15-32.4,32.7C111.1,226.7,125.9,241.3,143.7,241.2z M355.4,241.2
	c17.9,0,32.6-14.6,32.6-32.4c0-17.7-14.8-32.6-32.5-32.6c-17.8,0-32.5,14.7-32.5,32.6C323,226.6,337.5,241.1,355.4,241.2z"/>
</svg>
