<svg version="1.1" id="Layer_1" xmlns="http://www.w3.org/2000/svg" xmlns:xlink="http://www.w3.org/1999/xlink" x="0px" y="0px"
viewBox="0 0 500 500" style="enable-background:new 0 0 500 500;" xml:space="preserve">
<path fill="#1face1" class="st0" d="M425.8,95.7C417.9,42.4,374.3,6,320.5,5.9c-28.7,0-57.3-0.4-86,0.1c-44.4,0.8-76.8,21.4-97.3,60.9
c-0.6,1.1-1.2,2.2-1.8,3.4c-1.3-0.8-2.4-1.4-3.5-2C106.8,54,75.5,70.4,72.9,99.1c-0.9,10-1.8,20-2.3,30c-1.7,39,2.4,77.2,14.8,114.3
c14.1,41.9,36.5,78.3,71.2,106.4c2.6,2.1,3.3,4.1,3.3,7.2c-0.1,36.8-0.1,73.5,0,110.3c0,2.4,0,4.8,0.4,7.1
c1.9,11.1,9.3,17.2,19.5,20.5h172c16-6.4,20.1-12.5,20.1-29.9c0-36.8,0-73.5,0.1-110.3c0-2.3,0.4-4.8,1.5-6.8
c29.6-52.4,48.8-108.3,54.3-168.5C430.3,151.5,430,123.4,425.8,95.7z M355.6,362c0,35,0,70,0,105.1c0,9.2-2.5,11.7-11.5,11.7
c-51.4,0-102.9-0.2-154.3,0.2c-13.9,0.1-14.7-6.3-13.2-16.4c0,0,0.5-4.7,0.5-7.3c0-3.3,0.6-9.1-0.7-9.2v-56.7
c1.7-0.1,1.3-16.5,0-16.5v-15.9h179.2V362z M411.3,180.2c-3.1,33.3-10.7,65.6-23,96.6c-8,20.2-18,39.6-27,59.4c-1.3,3-3.2,4-6.6,4
c-30.1-0.1-60.2-0.1-90.3-0.1c-29.6,0-59.2-0.1-88.8,0.1c-3.6,0-6.3-0.9-9-3.2c-31.2-26.3-51.8-59.5-65-97.7
c-12.2-35.2-16.2-71.5-14.7-108.6c0.4-10.2,1.3-20.3,2.3-30.5c1-9.3,6-16,14.8-19.4c8.4-3.2,16.4-1.8,23.1,4.2
c1.4,1.3,2.4,4.1,2.1,6c-4,23.9-1.5,47.6,2.9,71.2c0.9,4.8,5.1,7.6,9.4,6.8c4.7-0.9,7.1-5.2,6.6-10.5c-1.6-15.5-4.2-31-4.3-46.5
c-0.3-50,39.6-89.6,89.6-89.9c28.2-0.1,56.4,0.5,84.5-0.1c49.8-1.2,89.3,35.8,92.7,82.8C412.5,130,413.6,155.1,411.3,180.2z"/>
<path fill="#1face1" class="st1" d="M323.2,38.4c35.8,1.1,65.4,27.4,70.5,61.4c0.3,1.7,0.4,3.5,0.4,5.2c-0.1,4.2-2.9,7.5-6.8,7.9
c-4.3,0.4-7.5-1.4-8.8-5.6c-0.8-2.6-1-5.3-1.6-7.9c-5.7-25.5-26.8-43.2-52.9-44.5c-1.3-0.1-2.6,0-3.8-0.2c-4.1-0.7-6.5-3.1-7-7.3
c-0.4-4,2-7.5,6.1-8.5C321,38.4,322.8,38.5,323.2,38.4z"/>
<path fill="#1face1" class="st0" d="M208.6,421.5c-2.7,0-5.4,0.1-8.1,0c-4.6-0.3-7.9-3.6-8-7.8c-0.1-4,2.9-7.9,7.2-8.2c6-0.4,12.1-0.4,18.1,0
c4.6,0.3,7.4,4.1,7.2,8.5c-0.2,4.3-3.2,7.2-7.7,7.5c-0.3,0-0.6,0-1,0C213.7,421.6,211.2,421.6,208.6,421.5
C208.6,421.5,208.6,421.5,208.6,421.5z"/>
<path fill="#1face1" class="st0" d="M257.7,421.5c-2.9,0-5.7,0.2-8.6,0c-4.4-0.3-7.4-3.5-7.6-7.7c-0.2-4.2,2.6-8,6.9-8.3c6.2-0.4,12.4-0.4,18.6,0
c4.3,0.3,7.1,4.2,6.9,8.3c-0.2,4.2-3.3,7.4-7.7,7.6C263.5,421.7,260.6,421.5,257.7,421.5z"/>
<path fill="#1face1" class="st1" d="M323,399.3c-0.1-16.4-10.2-26.6-26.5-26.6c-38.1,0-76.1,0-114.2,0c-1.9,0-3.8,0-6,0c0,0,0,16.9,0,16.9v-0.4
c1.7-0.1,3.3-0.2,4.8-0.2c38,0,76.1,0,114.1,0c8.8,0,11.4,2.6,11.4,11.3c0,11.9,0.1,23.9,0,35.8c0,6.9-3.1,10-9.9,10
c-39,0-78,0-117,0c-1.1,0-2.2-0.2-3.5-0.3c0,0,0-0.3-0.1-0.3c0,10.8,0.1,17.9,0.3,16.8h5.9c37.7,0,75.5,0,113.2,0
c17.2,0,27.2-10,27.2-27.3C323.1,423.2,323.1,411.2,323,399.3z"/>
</svg>