<?xml version="1.0" encoding="utf-8"?>
<!-- Generator: Adobe Illustrator 25.2.0, SVG Export Plug-In . SVG Version: 6.00 Build 0)  -->
<svg version="1.1" id="Layer_1" xmlns="http://www.w3.org/2000/svg" xmlns:xlink="http://www.w3.org/1999/xlink" x="0px" y="0px"
	 viewBox="0 0 500 500" style="enable-background:new 0 0 500 500;" xml:space="preserve">
<style type="text/css">
	.st0{fill:#1face1;}
</style>
<path class="st0" d="M264.9,495c-10.2,0-20.4,0-30.6,0c-6-0.7-12-1.3-17.9-2.1c-35.8-4.9-69-16.9-99.2-36.8
	C59.8,418.3,23.9,365.8,9.8,298.6c-2.3-10.8-3.2-21.9-4.8-32.9c0-10.2,0-20.4,0-30.6c0.3-2,0.6-4,1-6c2.6-14.7,3.9-29.7,7.9-44
	c14-50.6,41.5-92.6,82.6-125.4C151.1,16.1,213.7-0.4,282.8,8.1c35.4,4.3,68.3,16.4,98.1,36c64.4,42.3,102.2,101.5,111.4,178.2
	c6.2,51.9-3,101.2-28.9,146.8c-37.1,65.2-92.6,105.6-166.1,121.2C286.7,492.6,275.7,493.5,264.9,495z M121.4,415.2
	c13.6,10.8,28.1,19.5,43.7,26.5c24.9,11.1,50.9,16.6,78.1,17.5c29.4,1,57.6-4.3,84.9-15c2.5-1,3-2.3,2.5-4.7
	c-1.2-5.4-2.1-10.9-3.2-16.4c-9-44.8-22.1-88.4-38.1-131.2c-0.9-2.5-1.8-4.9-3.1-8.5c-15,7.1-29.8,13.5-44,20.8
	c-27.3,14.1-53.5,30.1-75.8,51.6C148.3,373.1,132,391.6,121.4,415.2z M94.3,389.3c41.2-69.4,103-112.7,177.5-140.6
	c-2.6-5.5-5.1-11.3-7.9-17c-2.8-5.8-5.7-11.6-8.7-17.6c-70.1,20.9-141.5,29.4-213.9,29.7C34.9,284.8,62.9,361.4,94.3,389.3z
	 M160.1,61.5c-61,31-99.2,79.3-115.2,146c65.7-0.1,129.6-8.8,193.1-25.5C214.4,140.2,189.2,100.2,160.1,61.5z M278.5,169.3
	c42.1-17.2,80.7-38.6,109-75.2c-58.8-54-138.1-60.3-186.8-45.8C229.9,86.5,255.4,126.9,278.5,169.3z M458.2,247.9
	c0.2-51-20.7-100.1-47.4-129.5c-31,38.1-71.6,62.8-116,82c5.9,13.3,11.5,26.3,17.4,39.1c0.5,1,3.1,1.7,4.6,1.5
	c37.9-3.8,75.6-2.6,113.3,2.6C439.4,244.9,448.6,246.4,458.2,247.9z M366.4,423.9c49.4-35.1,79.1-81.3,89.6-140.3
	c-43.1-12.2-86.1-16-130.4-9.2C343.3,323.2,357.1,372.4,366.4,423.9z"/>
</svg>
