<svg xmlns="http://www.w3.org/2000/svg" width="8.876" height="16.28" viewBox="0 0 8.876 16.28">
  <defs>
    <style>
      .cls-1 {
        fill: #fff;
        fill-rule: evenodd;
      }
    </style>
  </defs>
  <path id="Forma_1" data-name="Forma 1" class="cls-1" d="M175.105,5610.36h-2.13a3.72,3.72,0,0,0-3.939,4v1.85H166.9a0.334,0.334,0,0,0-.335.33v2.68a0.334,0.334,0,0,0,.335.33h2.141v6.76a0.334,0.334,0,0,0,.335.33h2.794a0.334,0.334,0,0,0,.335-0.33v-6.76H175a0.334,0.334,0,0,0,.335-0.33v-2.68a0.333,0.333,0,0,0-.1-0.23,0.35,0.35,0,0,0-.237-0.1h-2.5v-1.56a0.95,0.95,0,0,1,1.17-1.14h1.435a0.334,0.334,0,0,0,.335-0.33v-2.49A0.334,0.334,0,0,0,175.105,5610.36Z" transform="translate(-166.562 -5610.34)"/>
</svg>
