<?xml version="1.0" encoding="utf-8"?>
<!-- Generator: Adobe Illustrator 25.2.0, SVG Export Plug-In . SVG Version: 6.00 Build 0)  -->
<svg version="1.1" id="Layer_1" xmlns="http://www.w3.org/2000/svg" xmlns:xlink="http://www.w3.org/1999/xlink" x="0px" y="0px"
	 viewBox="0 0 500 500" style="enable-background:new 0 0 500 500;" xml:space="preserve">
<style type="text/css">
	.st0{fill:#1FACE1;}
</style>
<path class="st0" d="M495,176.9c0,6.4,0,12.7,0,19.1c-0.3,1.5-0.5,3.1-0.9,4.6c-3.4,12.7-5.5,25.9-10.3,38
	c-13.8,35-36.9,63.7-63.1,90.1c-48.1,48.5-103.3,87.5-162.3,121.4c-5.6,3.2-10.5,3.1-16-0.2c-58.5-34.1-113.4-73.1-161.3-121.3
	c-26.4-26.6-49.7-55.5-64.1-90.6C-1.7,192.7,3,149,30.3,108.7c25-36.9,60.8-57.1,105.5-60.1c36.9-2.5,69.7,8,98,32
	c5.9,5,11.2,10.6,16.8,15.9c0.4-0.3,0.7-0.5,0.9-0.7c1.1-1.1,2.2-2.3,3.3-3.5c21-22.5,46.6-36.5,76.9-41.9
	c27.5-4.9,54.4-2.2,79.8,9.3c41.9,18.9,68.7,50.9,79.7,95.7C492.9,162.5,493.8,169.7,495,176.9z"/>
</svg>
