<svg xmlns="http://www.w3.org/2000/svg" width="16.062" height="16.06" viewBox="0 0 16.062 16.06">
  <defs>
    <style>
      .cls-1 {
        fill: #fff;
        fill-rule: evenodd;
      }
    </style>
  </defs>
  <path id="Forma_1" data-name="Forma 1" class="cls-1" d="M236.011,5609.97h-6.022a5.021,5.021,0,0,0-5.019,5.02v6.02a5.021,5.021,0,0,0,5.019,5.02h6.022a5.022,5.022,0,0,0,5.019-5.02v-6.02A5.022,5.022,0,0,0,236.011,5609.97Zm3.513,11.04a3.513,3.513,0,0,1-3.513,3.51h-6.022a3.512,3.512,0,0,1-3.513-3.51v-6.02a3.52,3.52,0,0,1,3.513-3.52h6.022a3.521,3.521,0,0,1,3.513,3.52v6.02ZM233,5613.98a4.015,4.015,0,1,0,4.015,4.02A4.017,4.017,0,0,0,233,5613.98Zm0,6.53a2.51,2.51,0,1,1,2.509-2.51A2.515,2.515,0,0,1,233,5620.51Zm4.316-7.36a0.535,0.535,0,1,1-.535.53A0.534,0.534,0,0,1,237.316,5613.15Z" transform="translate(-224.969 -5609.97)"/>
</svg>
