<?xml version="1.0" encoding="utf-8"?>
<!-- Generator: Adobe Illustrator 25.2.0, SVG Export Plug-In . SVG Version: 6.00 Build 0)  -->
<svg version="1.1" id="Layer_1" xmlns="http://www.w3.org/2000/svg" xmlns:xlink="http://www.w3.org/1999/xlink" x="0px" y="0px"
	 viewBox="0 0 500 500" style="enable-background:new 0 0 500 500;" xml:space="preserve">
<style type="text/css">
	.st0{fill:#1FACE1;}
</style>
<path class="st0" d="M311.7,495c-48.7,0-97.5,0-146.2,0c-2.2-0.3-4.4-0.6-6.6-0.8c-14.7-1.7-29.5-2.4-44-5.2
	c-38.9-7.4-69.3-27.6-89.2-62.4C13.3,404.9,9,380.8,6.9,356.3c-0.7-8.2-1.3-16.4-1.9-24.6c0-55.1,0-110.2,0-165.3
	c0.3-2.3,0.6-4.7,0.8-7c1.6-14.5,2.5-29.2,5.1-43.5c6.2-34,22.9-61.8,51.1-82.1C86.2,16.4,113.9,9.3,143.1,8
	c65.7-3,131.4-2.7,197.1-0.7c16.3,0.5,32.8,2.2,48.7,5.6c36.5,7.8,65.6,26.9,84.1,60.3c12.2,22,17.9,45.9,19.1,70.8
	c3,65.8,2.7,131.7,0.7,197.6c-0.5,16-2.1,32.2-5.6,47.7c-12.1,52.3-44.3,85.7-96.8,98.7c-19.9,4.9-40.3,5.7-60.6,6.2
	C323.7,494.3,317.7,494.7,311.7,495z M449.2,243.4c0.2,0,0.4,0,0.6,0c0-18.1,0.6-36.3-0.1-54.4c-0.8-21.4-1.4-43-4.6-64.2
	c-4.7-31-21.6-53.5-52-64.6c-16.3-5.9-33.3-8.8-50.5-9.3c-33.9-0.9-67.8-1.3-101.7-1.5c-24.2-0.2-48.4,0.2-72.6,0.6
	c-18,0.3-35.9,1.1-53.5,5.7C85.3,63.4,65.5,81.4,56.5,111c-6.4,20.9-8.1,42.5-8.2,64.2c-0.4,51.4-0.5,102.8,0,154.3
	c0.2,15.7,1.7,31.6,4.8,46.9c7.7,37.9,30.5,62,69.2,68.9c15.9,2.8,32.2,4.4,48.4,4.7c46.5,0.8,93,1.1,139.5,0.6
	c21.3-0.2,42.7-1.5,63.7-4.6c37.3-5.5,62.5-29.4,70.2-65.5c3-14.2,4.7-29,5.1-43.5C449.8,305.8,449.2,274.6,449.2,243.4z"/>
<path class="st0" d="M249.6,124.9c69.4,0,125.3,55.8,125.5,125.3c0.2,69.4-56.1,125.7-125.6,125.6c-69.4-0.1-125.3-56.1-125.2-125.5
	C124.3,180.9,180.3,125,249.6,124.9z M249.6,169c-45.1,0-81.3,36.2-81.4,81.3c0,45.1,36.2,81.4,81.2,81.5
	c45.3,0.1,81.7-36.3,81.6-81.5S294.8,169,249.6,169z"/>
<path class="st0" d="M380.1,90.7c16.2,0,29.1,12.7,29.3,28.9c0.1,16.4-12.8,29.6-29.2,29.6c-16.1,0-29.2-13-29.3-29
	C350.7,103.8,363.7,90.8,380.1,90.7z"/>
</svg>
