<?xml version="1.0" encoding="utf-8"?>
<!-- Generator: Adobe Illustrator 25.2.0, SVG Export Plug-In . SVG Version: 6.00 Build 0)  -->
<svg version="1.1" id="Layer_1" xmlns="http://www.w3.org/2000/svg" xmlns:xlink="http://www.w3.org/1999/xlink" x="0px" y="0px"
	 viewBox="0 0 500 500" style="enable-background:new 0 0 500 500;" xml:space="preserve">
<style type="text/css">
	.st0{fill:#FFFFFF;}
</style>
<path class="st0" d="M5,160.7c6.7-11.4,12.6-13.1,24.8-7c35.5,17.7,71.1,35.5,106.6,53.2c1.4,0.7,2.9,1.4,4.2,2.2
	c7.1,4.2,9.7,12.3,6,19.3c-3.6,6.8-11.6,9.6-18.8,6.2c-10.5-5-20.8-10.3-31.2-15.5c-1.6-0.8-3.4-1.5-5.6-2.5c0,93.3,0,185.8,0,278.4
	c-16.2,0-32.5,0-48.7,0c-1.2-0.4-2.4-0.7-3.6-1c-15.7-4-26.2-13.6-31.6-28.9c-0.8-2.4-1.4-4.9-2.1-7.3c0-4.1,0-8.3,0-12.4
	c0.3-0.6,0.6-1.1,0.8-1.7c5.6-28.5,10.6-57.2,17-85.6c11.6-51,23.9-101.8,36.2-152.6c0.9-3.8,0.1-5.3-3.3-6.9
	c-12.7-6.1-25.3-12.7-38-18.8c-5.5-2.6-10.1-5.8-12.7-11.5C5,165.8,5,163.2,5,160.7z"/>
<path class="st0" d="M119.7,495c0-18.9,0-37.8,0-57c1.4-0.1,2.4-0.3,3.5-0.3c114,0,227.9,0,341.9,0c12.5,0,21.8,5.9,26.7,17.3
	c4.9,11.3,3.1,22.2-5.7,30.8c-4.2,4.1-10.5,6.2-15.8,9.1C353.4,495,236.5,495,119.7,495z"/>
<path class="st0" d="M275.6,92.2c-25.6-5.1-40-18.9-41.2-40.5C233.3,32,245.6,13.9,264,8c18.9-6,39,1.3,49.6,17.9
	c12,18.9,8.4,37.2-11.6,58.9c7.4,1.8,13.6,5.4,17.9,11.7c5,7.2,7,15.1,4.4,23.5c-8.3,26.7-22.2,49.9-44.6,67.3
	c-17.1,13.3-36.6,20.2-58.4,20.1c-13.4,0-26.7,0-40.1,0c-12.9,0-19.2-9.2-14.5-21.1c8.3-21.1,29-35.8,51.7-36.1
	c15.4-0.3,28-6.3,36.8-18.6c5.2-7.2,8.8-15.7,12.9-23.7C270.8,102.6,273.2,97.3,275.6,92.2z"/>
<path class="st0" d="M352.8,129.8c4.3,10.7,8.9,21.1,12.7,31.8c8.3,23.4,12.9,47.6,12.9,72.4c0.1,25.1,13.2,40.6,35.5,48.8
	c12,4.4,24.7,6.8,37.3,9.5c8.4,1.8,13.3,6.7,13.4,15.3c0.1,9.2,0.1,18.5,0,27.7c-0.2,8.8-6.9,15.2-15.5,14.4
	c-30.8-3-59.9-11.3-85.5-29.5c-24.8-17.7-37.8-42.2-41.3-72.2c-2-17.7-4.1-35.3-6.1-53c-0.1-1.1,0.2-2.6,0.9-3.4
	c15.6-17.8,26.5-38.4,34.2-60.7C351.2,130.7,351.6,130.6,352.8,129.8z"/>
<path class="st0" d="M320.7,408.8c-18.6,0-37.3,0-56.8,0c0.9-47.5,14-91.8,33.8-135.7c1.2,3.6,2,6.2,2.9,8.8
	c6.6,18.8,17,35.1,31.5,48.8c1.8,1.7,3.2,3.1,2.2,6c-7.6,23.1-12.3,46.7-13.1,71C321.2,408,320.9,408.3,320.7,408.8z"/>
</svg>
