<?xml version="1.0" encoding="utf-8"?>
<!-- Generator: Adobe Illustrator 25.2.0, SVG Export Plug-In . SVG Version: 6.00 Build 0)  -->
<svg version="1.1" id="Layer_1" xmlns="http://www.w3.org/2000/svg" xmlns:xlink="http://www.w3.org/1999/xlink" x="0px" y="0px"
	 viewBox="0 0 500 500" style="enable-background:new 0 0 500 500;" xml:space="preserve">
<style type="text/css">
	.st0{fill:#FFFFFF;}
</style>
<path class="st0" d="M495,494c-46.3,0-92.6,0-139.6,0c0-2.1,0-3.9,0-5.8c0-58.3,0-116.5-0.1-174.8c0-2.8,0.9-4.2,3.1-5.7
	c28.6-19.8,60.1-32.5,94.3-37.8c13.9-2.2,28.2-2.2,42.3-3.3C495,342.5,495,418.3,495,494z"/>
<path class="st0" d="M268.6,5c10.2,2.5,20.6,4.1,30.4,7.6c50.2,18,81.1,71.4,72.1,124c-8.1,47.3-42.8,83.6-89.3,93.2
	c-63.3,13-125.5-30.4-134.6-93.9c-8.1-56.2,23.9-108,77.7-125.4c7.9-2.6,16.4-3.7,24.6-5.4C255.9,5,262.3,5,268.6,5z M346.5,118.4
	c-0.2-48.4-39.8-87.8-87.6-87.2c-48.5,0.6-86.9,39.2-86.9,87.4c0,48.3,39.3,87.4,87.5,87.1C307.7,205.5,346.7,166.3,346.5,118.4z"/>
<path class="st0" d="M129.2,5c6.5,1.3,13.2,2.1,19.5,4c8.5,2.6,16.7,6,25,9c0.4,0.7,0.7,1.5,1.1,2.2c-1.4,0.7-3.1,1.2-4.2,2.3
	c-14.7,13.6-25.9,29.7-33,48.4c-1.2,3.2-2.8,4.6-6.3,5.2c-23.6,4.1-40.6,17.1-50.9,38.7c-12.6,26.4-25.1,52.8-37.6,79.2
	c-0.7,1.6-1.6,3.1-2.5,5c-8.2-7.4-14.5-15.9-19.6-25.2c-32.9-60-8.2-132.5,54.7-159.8C85,10,96,8.6,106.4,5.9
	c1.2-0.3,2.4-0.6,3.6-0.9C116.4,5,122.8,5,129.2,5z"/>
<path class="st0" d="M303.1,360.6c10.5-11.3,21.9-23.7,33.3-36c0.4,0.2,0.7,0.5,1.1,0.7c0,56.1,0,112.1,0,168.8c-1.7,0-3.4,0-5.1,0
	c-68.3,0-136.6,0-204.8,0.1c-3.3,0-5.6-1-8-3.2C82.6,456.5,45.6,422.2,8.7,387.8c-1.5-1.4-2.6-4-2.6-6.1c-0.2-22-0.2-43.9,0-65.9
	c0-2.1,0.6-4.4,1.5-6.3c29.6-62.6,59.3-125.3,88.9-187.9c5.7-12.1,14.9-20.4,27.2-25.5c2-0.8,4.1-1.3,7-2.2
	c-5.9,33.3-0.1,63.9,17.1,93c-11.1,2.3-10.9,10.3-10.9,18.9c0.2,39.6,0.1,79.3,0.2,118.9c0,2.9,0.5,6.2,2,8.6
	c2.7,4.5,8.6,4.4,13.3,0.7c7.1-5.6,13.9-11.8,21.6-16.5c41.5-25.4,95-21.3,132.3,9.8c0.4,0.3,0.7,0.7,1,1
	c-6.3,6.3-12.6,12.5-18.8,18.6C293,351.2,297.1,355,303.1,360.6z M70.7,228.7c-9.8,23.6-19.4,46.6-29.1,69.9
	c5.6,2.3,10.7,4.4,16.1,6.7c9.8-23.4,19.3-46.4,29.1-69.8C81.3,233.2,76.3,231,70.7,228.7z M101.3,200.5c-5.5-2.3-10.6-4.5-16.1-6.7
	c-2.5,6-4.8,11.5-7.3,17.5c5.6,2.3,10.7,4.4,16.1,6.7C96.6,211.9,98.9,206.4,101.3,200.5z"/>
<path class="st0" d="M173.9,218.3c-6.4,2.8-12.5,5.4-19.5,8.5c0-8.2-0.2-15.5,0.1-22.7c0.1-2.4,2.4-3.5,4.4-1.4
	C163.9,207.6,168.6,212.7,173.9,218.3z"/>
<path class="st0" d="M329,118.5c0.1,38.6-31.1,69.9-69.7,69.9c-38.5,0-69.9-31.3-69.9-69.8c0-38.5,31.3-69.8,69.8-69.8
	C297.8,48.8,328.9,79.9,329,118.5z M215.9,116c-1.8,22.6,15.9,44.9,41.4,46.1c21.5,1,44.1-14.8,45.4-41.8
	c1.1-21.9-15-43.9-42.1-45.1C238.2,74,217.2,91.2,215.9,116z"/>
<path class="st0" d="M259.2,144.6c-14.5,0-26-11.6-26-26.1c0-14.4,11.7-26.1,26.1-26.1c14.4,0,26.1,11.9,26.1,26.2
	C285.3,133,273.6,144.6,259.2,144.6z"/>
</svg>
