<?xml version="1.0" encoding="utf-8"?>
<!-- Generator: Adobe Illustrator 25.2.0, SVG Export Plug-In . SVG Version: 6.00 Build 0)  -->
<svg version="1.1" id="Layer_1" xmlns="http://www.w3.org/2000/svg" xmlns:xlink="http://www.w3.org/1999/xlink" x="0px" y="0px"
	 viewBox="0 0 500 500" style="enable-background:new 0 0 500 500;" xml:space="preserve">
<style type="text/css">
	.st0{fill:#FFFFFF;}
</style>
<path class="st0" d="M69.8,311.5c8.4,1.6,15.9,2.9,23.3,4.3c37.8,7.1,75.6,14.2,113.4,21.2c3.3,0.6,4.2,1.8,4.2,5
	c-0.2,13-0.3,26,0.1,39c0.1,3.1,1.9,6.8,4.1,9.2c4.6,5,9.9,9.4,15.1,13.8c2.2,1.8,2.6,3.5,1.7,6.3c-6.1,18.3-12,36.7-17.9,55.1
	c-0.8,2.6-1.8,3.6-4.7,3.6c-34.6-0.1-69.2-0.1-103.8-0.1c-0.8,0-1.6-0.1-2.7-0.2c-2.4-16.5-4.8-32.8-7.2-49.2
	c-2.1-14.5-3.3-29.1-6.5-43.3c-3.1-13.9-8.3-27.3-12.5-40.9C74.2,327.6,72.2,320,69.8,311.5z"/>
<path class="st0" d="M311.5,277.8c-55.8,6.1-110.9,5.1-166.6-2.6c0.6-2.2,1-4,1.6-5.7c6.6-19.7,13-39.4,19.9-59
	c1.7-5,1.8-9.6,0.8-14.7c-2.1-10.2-3.7-20.4-5.6-30.9c52.3,0,104.2,0,156.7,0c-1.6,8.5-2.8,16.9-4.8,25.2c-1.7,7-1.6,13.6,1.1,20.4
	c2.7,6.9,4.4,14.2,6.8,21.3c0.9,2.6,0.4,4.2-1.9,5.6c-3.3,2-6.5,4.3-9.8,6.4c-3.9,2.5-5.2,5.9-4,10.4
	C307.6,261.9,309.4,269.6,311.5,277.8z M249.6,231.2c0-1.1,0-2.3,0-3.4c-0.2-5-3.2-8.3-7.6-8.5c-4.6-0.1-7.8,3.3-8,8.5
	c-0.1,2.1-0.1,4.2,0,6.3c0.2,5,3.2,8.3,7.5,8.5c4.6,0.1,7.8-3.3,8-8.5C249.6,233.1,249.6,232.1,249.6,231.2z"/>
<path class="st0" d="M161.3,55.7c53.2,0,106.1,0,159.8,0c3.5,18,7.7,35.8,10.4,53.9c1.9,12.6-1.6,24.8-7.2,36.3
	c-1.1,2.3-2.4,3.3-5.1,3.3c-53.3-0.1-106.6-0.1-159.8,0c-3.2,0-4.2-1.5-5.2-3.9c-6.3-15-7.8-30.4-3.9-46.2
	C153.7,84.7,157.5,70.5,161.3,55.7z"/>
<path class="st0" d="M226.2,338.3c42.3-5.3,84.3-10.5,126.8-15.7c5.8,48.5,11.6,96.6,17.4,145.4c-10.6,0-20.8-0.1-31,0
	c-21,0.2-41.9,0.3-62.9,0.9c-4.7,0.1-6.3-1.5-7.6-5.7c-6.4-19.9-13.1-39.7-20-59.5c-1.1-3.2-3.4-6.2-5.8-8.7
	c-4.5-4.6-9.6-8.7-14.4-13.2c-1.1-1-2.4-2.5-2.5-3.8C226.1,364.9,226.2,351.7,226.2,338.3z"/>
<path class="st0" d="M335.4,309c-4.6-18.3-9-36.1-13.6-54.4c3.2-2.2,6.5-4.5,9.8-6.7c8.6-5.8,8.9-6.6,5.9-16.3
	c-0.7-2.1-1.3-4.3-2-6.8c5.9-1.7,10.7-0.1,15.1,3.4c3.3,2.6,6.3,5.6,9.6,8.3c4.1,3.4,7.9,3.4,11.7-0.3
	c15.6-15.6,31.1-31.3,46.6-47.1c4.3-4.4,3.8-8.2-1-13.1c-22.2-22.2-44.4-44.3-66.4-66.6c-2.1-2.1-3.5-5.3-4.2-8.2
	c-3.2-13.2-6-26.6-8.9-39.9c-0.4-1.7-0.7-3.5-1.2-5.7c6.1,0,11.9-0.1,17.7,0.1c1.2,0,2.6,1.1,3.6,2.1c32,30.2,64.2,60.3,95.9,90.8
	c19.4,18.7,19.2,48-0.3,66.5c-31.7,30.1-63.7,59.8-95.6,89.7c-0.9,0.8-2.1,1.7-3.3,1.9C348.4,307.5,342.1,308.2,335.4,309z"/>
<path class="st0" d="M131.9,55.6c4.3,0,8.5,0,13.3,0c-2.7,10.8-5,21.6-8.2,32c-7.8,25.6-5.4,50,7.8,73.9c-1.3,1-2.7,2.1-4.1,3
	c-23.9,16.2-47.8,32.5-71.8,48.6c-3.8,2.6-5.6,5.6-5,10.2c0.3,2.2-0.1,4.6,0.5,6.8c1.8,6.5-0.6,10.9-6.1,14.1
	c-7.8,4.5-10.8,11.1-9,20.1c0.5,2.8,0.1,5.7,0.1,8.8C29,250.7,22.5,227,47,203.7c16.1-15.3,33.2-29.7,50-44.3
	c4.2-3.7,6.9-7.7,8.4-13.2c8.3-29,16.8-57.9,25.3-86.9C131,58.2,131.5,57,131.9,55.6z"/>
<path class="st0" d="M210.4,297.9c0,7.6,0,15.5,0,24c-47.7-8.9-95.1-17.8-143-26.8c-0.5-5.6-0.9-11.2-1.4-16.9
	C114.3,284.8,162.1,291.3,210.4,297.9z"/>
<path class="st0" d="M226.4,322.5c0-8.5,0-16.5,0-24.3c29.6-1.3,59-2.7,89.1-4c1.2,4.8,2.7,10.4,4.3,16.8
	C288.6,314.8,257.7,318.6,226.4,322.5z"/>
<path class="st0" d="M136.9,249.8c-2.8,8.2-5.3,15.3-8,22.9c-8.9-1.6-17.6-3.1-26.3-4.6c-11.5-2-23-3.9-34.4-6
	c-1.1-0.2-2.1-1.1-3.1-1.6c0.6-1.1,1-2.3,1.8-3.1c5.3-5.7,11.4-8.2,19.7-7.8C103,250.4,119.6,249.8,136.9,249.8z"/>
</svg>
