<?xml version="1.0" encoding="utf-8"?>
<!-- Generator: Adobe Illustrator 25.2.0, SVG Export Plug-In . SVG Version: 6.00 Build 0)  -->
<svg version="1.1" id="Layer_1" xmlns="http://www.w3.org/2000/svg" xmlns:xlink="http://www.w3.org/1999/xlink" x="0px" y="0px"
	 viewBox="0 0 500 500" style="enable-background:new 0 0 500 500;" xml:space="preserve">
<style type="text/css">
	.st0{fill:#FFFFFF;}
</style>
<path class="st0" d="M70.9,495c-4.4-2.1-9.2-3.7-13.1-6.5c-6.3-4.4-10.1-11-10.5-18.5c-0.6-12.5-0.2-25-0.2-37.8
	c33.3,0,66.3,0,100,0c0,2.8,0,5.6,0,8.4c0,8.4,0.1,16.9,0,25.3c-0.3,13.9-8.3,24.2-21.5,28.1c-0.7,0.2-1.4,0.6-2.1,0.9
	C105.9,495,88.4,495,70.9,495z"/>
<path class="st0" d="M375.6,495c-2.2-0.8-4.5-1.6-6.6-2.6c-9.8-4.6-16.1-12.4-16.7-23.2c-0.7-12.2-0.2-24.4-0.2-37
	c33.1,0,66.1,0,99.9,0c0,2.4,0,5.1,0,7.7c0,8.4,0,16.9,0,25.3c-0.1,14.6-8,24.9-22.2,28.9c-0.6,0.2-1.1,0.5-1.7,0.8
	C410.6,495,393.1,495,375.6,495z"/>
<path class="st0" d="M360.1,90.3c7.7,39.1,0.2,74.2-26.4,104.3c-20.8,23.5-47.4,35.9-78.8,37.6c-24.2,1.3-46.7-4.9-67-18.2
	c-20.5-13.4-35.2-31.5-44-54.3c-8.7-22.6-9.5-45.7-3.9-69.3c-0.4-0.1-0.7-0.2-1.1-0.4c-2.6,3.9-5.3,7.7-7.8,11.8
	c-13,21.5-19.6,44.8-19.7,69.8c-0.2,34.1-0.1,68.1-0.1,102.2c0,0.9,0.1,1.9,0.2,3.4c2.2,0,4.2,0,6.2,0c15.5,0.2,27.7,10.2,29,25.4
	c1,12.3,0.2,24.7,0.2,37.3c-33.2,0-66.2,0-99.6,0c0-14.1-0.8-28.1,0.2-41.9c0.9-11.8,11.7-20.5,23.7-20.8c3.6-0.1,7.3,0,11.4,0
	c0-2.3,0-4.2,0-6c0-32.3-0.1-64.6,0-96.9c0.3-71,41.7-131.5,107.5-157.4c92.8-36.5,200.2,20.4,221.6,117.8c3,13.4,4.2,27.4,4.5,41.1
	c0.7,31.7,0.2,63.3,0.2,95c0,1.9,0,3.8,0,6.4c3.1,0,5.9,0,8.7,0c15.4,0,24.8,8.3,26.7,23.5c0.4,3,0.3,6,0.3,9.1c0,10,0,20,0,30.2
	c-33.4,0-66.5,0-100.1,0c0-3.8,0-7.6,0-11.4c0-7.3-0.1-14.6,0-22c0.3-17.2,12.5-29.3,29.7-29.5c1.9,0,3.7,0,5.9,0
	c0.1-2,0.2-3.6,0.2-5.1c0-32.6,0.1-65.3,0-97.9c-0.1-29.5-8.2-56.4-25.1-80.7C361.8,92.4,360.9,91.4,360.1,90.3z M165,119.1
	c0,46.5,37.8,84.5,84.3,84.6c46.6,0.1,84.4-37.6,84.6-84.3c0.2-46.7-37.8-84.8-84.6-84.8C202.9,34.6,165.1,72.5,165,119.1z"/>
<path class="st0" d="M47.2,403c0-11.5,0-22.5,0-33.9c33.2,0,66.2,0,99.6,0c0,11.2,0,22.4,0,33.9C113.6,403,80.6,403,47.2,403z"/>
<path class="st0" d="M451.7,403.3c-32.2,0-64,0-95.8,0c-1.1,0-2.2-0.1-3.7-0.2c0-11.3,0-22.5,0-33.9c33.1,0,66.1,0,99.5,0
	C451.7,380.4,451.7,391.6,451.7,403.3z"/>
</svg>
