<?xml version="1.0" encoding="utf-8"?>
<!-- Generator: Adobe Illustrator 25.2.0, SVG Export Plug-In . SVG Version: 6.00 Build 0)  -->
<svg version="1.1" id="Layer_1" xmlns="http://www.w3.org/2000/svg" xmlns:xlink="http://www.w3.org/1999/xlink" x="0px" y="0px"
	 viewBox="0 0 500 500" style="enable-background:new 0 0 500 500;" xml:space="preserve">
<style type="text/css">
	.st0{fill:#FFFFFF;}
</style>
<path class="st0" d="M5,494c1-1.4,2.2-2.7,3-4.1c32.3-52.7,64.6-105.5,96.9-158.3c0.9-1.5,1.9-2.9,3-4.7
	c9.5,8.4,18.8,16.6,28.1,24.7c5.7,5,10.8,12,17.5,14.5c6.7,2.6,15.1,0.9,22.7,0.8c27.5-0.6,55.1-0.3,82.5-2.1
	c43.1-2.9,84.1-13.5,119.8-39.3c2.6-1.9,5.1-3.8,8.1-6c35.9,58.6,71.6,117,107.3,175.5c-161.6,0-323.2,0-484.8,0
	C7.9,495,6.4,494.4,5,494z"/>
<path class="st0" d="M337.3,316.9c-15.2,7.5-31,12.4-47.4,15.7c-32.4,6.5-65.2,6.1-98,5.8c-8.1-0.1-16.2,0-24.4-0.2
	c-1.9-0.1-4.1-0.8-5.5-2C124,302.9,86,269.5,48.2,235.8C25,215.1,22,183.3,40.4,158.3c8.4-11.4,16.9-22.7,25.4-34.1
	c4.8-6.4,9.5-12.7,14.7-19.7c17.9,13.2,35.6,26.2,53.7,39.5c-10.2,14.7-20.3,29.1-30.7,44c5.7,5,11.4,10,17.1,15
	c20.4,17.8,40.8,35.5,61.1,53.4c2.7,2.4,4.5,2.7,7.6,0.4c16-11.7,33.3-20.5,53.2-23.2c12.5-1.7,24.8-0.7,36.6,4.1
	c1.5,0.6,3.1,1.7,4.1,3c17.8,24.6,35.5,49.4,53.2,74.1C336.7,315.5,336.9,316.1,337.3,316.9z"/>
<path class="st0" d="M373,143.5c-9.3,6.9-18.9,8.2-29.3,4.9c-39.1-12.3-78.2-24.5-117.3-36.7c-12.1-3.8-24.2-7.9-36.4-11.3
	c-12.1-3.4-21.1-10-25.2-22.6c-2.1,15.1-4.9,29.8-14.1,42.9c-17.7-13-35.2-25.9-53.1-39.1c13.3-17.8,26.3-35.3,39.7-53.2
	c14.2,9.3,24.1,21.2,26.6,39.5c3.1-15.2,11.1-24.5,25.4-27c4.5-0.8,9.7-0.4,14,1c47.1,14.5,94,29.2,141,44.1
	c1.5,0.5,3.6,2.4,3.7,3.8C349.6,110.6,357.4,128.5,373,143.5z"/>
<path class="st0" d="M313.4,169.3c11.1,3.1,21.2,6.8,31.6,8.5c19.4,3.2,36.4-2.9,50.7-16.4c2.1-2,3.7-2.4,6.6-1.8
	c8.3,1.8,16.8,2.9,26,4.4c-0.7,25.9-6,51.5-16.7,75.9c-10.9,24.8-26.8,45.7-49.1,62c-2.9-3.9-5.6-7.6-8.3-11.3
	c-18.7-25.5-37.4-51.1-56.2-76.6c-2.3-3.1-2.5-5.5-0.8-8.9C302.7,193.3,307.9,181.2,313.4,169.3z"/>
<path class="st0" d="M376.1,70.1c0.7-9.5,0.4-19.2,2.4-28.4c4.9-22.4,25.8-37.2,48.7-35.7c22.6,1.5,41.5,19.5,43,42.4
	c1,14.6,1,29.3,0,43.9c-1.7,23.9-22.2,41.9-46.3,42c-23.6,0.1-43.9-17.4-46.5-40.8c-0.8-7.7-0.1-15.6-0.1-23.3
	C376.9,70.1,376.5,70.1,376.1,70.1z"/>
</svg>
