<?xml version="1.0" encoding="utf-8"?>
<!-- Generator: Adobe Illustrator 25.2.0, SVG Export Plug-In . SVG Version: 6.00 Build 0)  -->
<svg version="1.1" id="Layer_1" xmlns="http://www.w3.org/2000/svg" xmlns:xlink="http://www.w3.org/1999/xlink" x="0px" y="0px"
	 viewBox="0 0 500 500" style="enable-background:new 0 0 500 500;" xml:space="preserve">
<style type="text/css">
	.st0{fill:#FFFFFF;}
</style>
<path class="st0" d="M5,113.9c4.9-13.9,16.8-12.3,28.5-12.1c0-2.1,0-3.8,0-5.5c0-11.9,0-23.9,0-35.8c0-7.4,2.9-10.3,10.4-10.4
	c6-0.1,12.1-0.1,18.1,0c6.9,0.1,9.8,3.2,9.8,10.1C72,72.1,72,84,72,96c0,1.7,0,3.4,0,5.5c9.6,0,18.8,0,28.2,0
	c0.3-2.2,0.6-4.6,1.1-6.8c2.5-10.7,11.8-17.8,22.6-17.4c10.8,0.4,20,8.1,21.4,18.8c0.6,4.6,2,6.1,6.8,5.9c9.7-0.4,19.4,0,29.1-0.2
	c2.9-0.1,4.6,0.8,6,3.4c15.6,27.4,39.4,40.2,70.6,37.1c23.1-2.3,40.8-14.4,52.6-34.5c2.6-4.4,5-6.3,10.2-6.1
	c10.6,0.5,21.3,0.1,32.4,0.1c0.7-8.7,3.1-16.7,10.9-20.8c4.3-2.3,9.6-3.7,14.4-3.5c11.7,0.4,18.5,8.9,20.7,24c9.1,0,18.3,0,28,0
	c0-2,0-3.9,0-5.8c0-11.9-0.1-23.9,0-35.8c0-6.6,3-9.7,9.6-9.8c6.4-0.2,12.7-0.1,19.1,0c6.8,0.1,9.7,3.2,9.7,10.1
	c0.1,11.9,0,23.9,0,35.8c0,1.7,0,3.4,0,5.4c5.7,0.3,11,0.2,16.1,1c6.7,1,10.7,5.5,12.1,11.9c1.3,6.3-0.8,11.9-6.3,15.3
	c-2.9,1.8-6.8,2.5-10.3,3c-3.6,0.5-7.3,0.1-11.6,0.1c0,2.1,0,3.7,0,5.4c0,12.1,0,24.2,0,36.3c0,6.8-3,9.8-9.9,10
	c-6.2,0.1-12.4,0.1-18.6,0c-6.8-0.1-9.8-3.2-9.9-10c-0.1-11.9,0-23.9,0-35.8c0-1.7,0-3.4,0-5.5c-10.7,0-20.9,0-31.8,0
	c-0.8,7.7-1.7,15.4-2.5,23.1c-2.2,20.1-4.3,40.2-6.4,60.3c-1,10-6.5,16.6-15.8,19.5c-9.5,3-17.9,0.3-24.5-7.3
	c-9-10.3-18-20.6-27-30.9c-1.2-1.4-2.5-2.8-4.3-4.8c-0.2,2.2-0.4,3.5-0.4,4.8c0,25.8,0.1,51.6-0.1,77.4c0,3.4,1,4.9,4.2,6.2
	c25.5,10.2,50.9,20.8,76.4,30.9c12.5,5,19.1,13.8,21,27.1c5,34.3,10.4,68.5,15.7,102.8c2.1,13.4-3.7,26.1-14.8,32
	c-11.8,6.3-25.2,4.4-34.8-4.9c-5.7-5.5-7.9-12.5-9.1-20c-4.2-28-8.4-56-12.8-83.9c-0.3-1.8-2.2-4.2-4-4.9
	c-23.2-9.6-46.4-19.1-69.7-28.5c-2-0.8-4.3-1.1-6.5-1.2c-20.2-0.1-40.4-0.1-60.6,0c-2.3,0-4.8,0.4-6.9,1.3
	c-23,9.3-45.9,18.7-68.9,27.9c-3.1,1.2-4.3,3-4.7,6.2c-4.1,28-8.3,56-12.7,84c-2.7,17-14.4,27.9-29.4,27.7
	c-18.3-0.2-31.9-15.7-29.2-34.2C72.6,408,78.1,372.5,83.6,337c1.8-11.8,8.5-19.9,19.6-24.4c25.8-10.4,51.5-21,77.3-31.4
	c2.2-0.9,3.8-1.6,3.8-4.6c-0.1-26.7-0.1-53.5-0.1-80.2c0-0.6-0.2-1.2-0.3-1.8c-0.5-0.4-0.9-0.7-1.4-1.1c-0.7,1.2-1.1,2.6-2,3.6
	c-9,10.3-18.1,20.6-27,31c-6.8,8-15.2,11.1-25.2,7.8c-9.4-3.1-14.7-9.9-15.8-20.1c-2.7-26.1-5.6-52.2-8.2-78.3
	c-0.4-3.6-1.3-4.9-5.1-4.8c-8.9,0.3-17.8,0.1-27.4,0.1c0,2,0,3.7,0,5.4c0,12.1,0,24.2,0,36.3c0,6.8-3.1,9.9-9.9,10
	c-6.2,0.1-12.4,0.1-18.6,0c-6.9-0.1-9.8-3.1-9.9-10c-0.1-11.9,0-23.9,0-35.8c0-1.7,0-3.4,0-5.8c-11.5,0-23.7,2-28.5-12.2
	C5,118.3,5,116.1,5,113.9z M152.4,160.5c8.3-9.5,15.9-18.2,23.9-27.3c-9.4,0-18,0-26.7,0C150.4,142.1,151.3,150.6,152.4,160.5z
	 M349.7,133.2c-9,0-17.5,0-26.8,0c8.1,9.2,15.7,17.9,23.8,27.2C347.8,150.7,348.7,142.2,349.7,133.2z"/>
<path class="st0" d="M198.7,72c0.1-28.1,23.1-50.9,51.2-50.7c27.8,0.2,50.4,23.2,50.4,51.1c-0.1,27.9-22.9,50.7-50.8,50.7
	C221.5,123.1,198.6,100.1,198.7,72z"/>
</svg>
