<?xml version="1.0" encoding="utf-8"?>
<!-- Generator: Adobe Illustrator 25.2.0, SVG Export Plug-In . SVG Version: 6.00 Build 0)  -->
<svg version="1.1" id="Layer_1" xmlns="http://www.w3.org/2000/svg" xmlns:xlink="http://www.w3.org/1999/xlink" x="0px" y="0px"
	 viewBox="0 0 500 500" style="enable-background:new 0 0 500 500;" xml:space="preserve">
<style type="text/css">
	.st0{fill:#FEFEFE;}
</style>
<path class="st0" d="M5,156.9c1-10.3,1.7-20.6,2.9-30.8c2.1-17.5,3.4-35.3,10.8-51.6C35.1,38.4,63,17.2,102.1,10.8
	c25.4-4.2,50.8-6.1,76.5-3.1c24.2,2.9,47.9,6.9,68.2,21.8c10.2,7.5,19,16.2,26.2,26.7c-6.8,3-13.3,5.5-19.5,8.7
	c-37.6,19.7-61.3,50.2-70.9,91.5c-0.7,3.2-2.1,4.9-5.2,5.9c-17.2,5.7-33.2,13.8-46.1,26.9C103.3,217.9,93.6,252,102,291.3
	c2.4,11.3,4.9,22.6,7.4,34.5c-1.8,0.1-3.3,0.3-4.7,0.3c-15.8,0-31.5,0.1-47.3-0.1c-2.6,0-5.7-1.1-7.7-2.7
	C27,305,14.4,281.1,10.8,252.4c-2-16.1-3.4-32.2-5-48.4c-0.1-1.4-0.5-2.8-0.8-4.2C5,185.5,5,171.2,5,156.9z"/>
<path class="st0" d="M232.4,495c0.1-21.6,0.2-43.3,0.3-64.9c0-2,0-4.1,0-6.6c48.6,0,96.8,0,145.9,0c0,23.8,0,47.6,0,71.4
	C329.8,495,281.1,495,232.4,495z"/>
<path class="st0" d="M407.2,495c0-23.7,0-47.3,0-71.4c11.3,0,22.6,0,34.4,0c0,23.9,0,47.6,0,71.4C430.2,495,418.7,495,407.2,495z"/>
<path class="st0" d="M177.6,192.1c-3,36,0.5,70.9,9.1,105.5c9.4,0,18.6,0,28,0c-2.3-11.5-4.7-22.6-6.6-33.9
	c-5.8-34.1-5.4-68.2,1.8-102c9.3-44,44.9-76.2,91-83c34.6-5.1,69.2-4.6,103.6,1.7c42.1,7.7,76.3,43.8,83.1,86.3
	c7.1,44.3,8.7,88.6,3.6,133.2c-2.1,18.5-4,37-12.2,54.2c-7.2,15.1-17.2,27.9-30.4,38.1c-1.7,1.3-4.3,2.2-6.4,2.2
	c-74.2,0.1-148.4,0.3-222.6-0.1c-15.6-0.1-30.2-5.5-42.4-15.2c-24.9-19.9-39.4-46.2-45-77.5c-1.9-10.5-4.2-20.9-5.2-31.5
	C123.8,237.9,146.5,202.8,177.6,192.1z"/>
<path class="st0" d="M91.9,422.3c-11.5,0-22.6,0-34,0c0-22.4,0-44.7,0-67.2c11.3,0,22.5,0,34,0C91.9,377.5,91.9,399.6,91.9,422.3z"
	/>
<path class="st0" d="M201.4,422.2c-27.5,0-53.8,0-80.3,0c0-22,0-43.6,0-66.8C141.1,386.3,164.2,411.9,201.4,422.2z"/>
</svg>
