<?xml version="1.0" encoding="utf-8"?>
<!-- Generator: Adobe Illustrator 25.2.0, SVG Export Plug-In . SVG Version: 6.00 Build 0)  -->
<svg version="1.1" id="Layer_1" xmlns="http://www.w3.org/2000/svg" xmlns:xlink="http://www.w3.org/1999/xlink" x="0px" y="0px"
	 viewBox="0 0 500 500" style="enable-background:new 0 0 500 500;" xml:space="preserve">
<style type="text/css">
	.st0{fill:#FFFFFF;}
</style>
<path class="st0" d="M228.5,5c6.5,2.7,13.7,4.4,19.5,8.3c11.2,7.4,17.4,18.5,17.8,32.1c0.3,9.5,0.8,19.3-0.9,28.5
	c-3.5,18.8-18.2,31.5-37.3,33.5c-11.4,1.2-22.9,1.9-34.1-1.6c-15.9-4.9-26.4-15.9-29.1-32.2c-1.8-11.1-1.7-23,0-34.2
	c2.6-17.9,17.2-30.8,35-33.7c0.8-0.1,1.5-0.5,2.2-0.7C210.7,5,219.6,5,228.5,5z"/>
<path class="st0" d="M296.4,199.5c-3.6,35-7.1,69.1-10.6,103.7c12.1,3.4,23.9,6.8,35.8,10.2c4,1.1,8,2.2,11.9,3.4
	c18.6,5.5,29.1,18.8,29.3,38.2c0.3,33.1,0.3,66.2,0,99.3c-0.2,20.3-13.1,36-31.1,38.9c-24.5,3.9-44.6-13.5-44.8-39.1
	c-0.1-20.7,0-41.4,0-62.1c0-1.7,0-3.4,0-5.5c-16-3.4-31.7-6.7-47.3-10c-1.4-0.3-2.8-0.5-4.2-0.9c-14.6-5-28.9-3.4-43.5,0.4
	c-16.1,4.1-32.6,7-49.3,10.6c0,1.9,0,3.6,0,5.3c0,20.9,0.1,41.7,0,62.6c-0.1,21.5-14.1,37.1-35.1,39.4
	c-19.5,2.1-39.5-14.1-40.2-33.6c-0.8-22.7-0.5-45.5-0.5-68.3c0-13.2-0.3-26.4,0.3-39.6c0.8-17.2,10.6-29.8,27-34.8
	c15.2-4.7,30.5-8.8,45.8-13.1c1.6-0.5,3.5-0.4,5.2-0.4c19.3-0.1,38.5-0.1,57.8-0.2c13.2-0.1,24.9-3.9,35-12.7
	c18.1-15.6,21.1-46.2,6.1-64.9c-10.6-13.2-24.3-19.5-41.1-19.5c-12.4,0-24.8,0.1-37.2,0.2c-1.7,0-3.4,0-5.5,0
	c-0.4-5.2-0.7-9.9-1-14.6c-1.1-20.8-2.1-41.6-3.4-62.4c-0.2-3.8,0.9-5.7,4.6-6.1c4.9-0.6,9.8-1.6,14.6-1.7c26.6-0.2,53.2,0,79.7-0.1
	c12.4,0,23.1,3.6,32.8,11.9c24.3,20.7,49.2,40.9,73.8,61.4c3.2,2.7,5.5,3.1,9,0.3c9.3-7.3,18.6-14.4,28.4-21
	c8.4-5.7,19.2-4.4,26.5,2.2c7.3,6.7,9.5,17.3,5,26.2c-1.4,2.8-3.4,5.5-5.8,7.4c-10.4,8.1-20.8,16.4-31.7,23.7
	c-19,12.8-40,11.4-57.8-3.1c-11.2-9.2-22.3-18.5-33.5-27.7C299.9,202.2,298.5,201.2,296.4,199.5z"/>
<path class="st0" d="M128.9,163.3c0.7,12.3,1.4,24.6,2.1,37c0.5,8.4,0.8,16.8,1.2,25.2c0.4,8.3,2.5,10.2,11,10.2
	c20.2-0.1,40.4-0.3,60.6-0.3c13.8,0,22.8,10.1,21.1,23c-1.3,9.1-8.8,16.5-18.7,16.6c-24.8,0.4-49.7,1.2-74.4,0
	c-32.4-1.5-51.7-38.7-34.9-66.3c9.6-15.7,20.5-30.5,30.9-45.8C128.1,163.1,128.5,163.2,128.9,163.3z"/>
</svg>
