<?xml version="1.0" encoding="utf-8"?>
<!-- Generator: Adobe Illustrator 25.2.0, SVG Export Plug-In . SVG Version: 6.00 Build 0)  -->
<svg version="1.1" id="Layer_1" xmlns="http://www.w3.org/2000/svg" xmlns:xlink="http://www.w3.org/1999/xlink" x="0px" y="0px"
	 viewBox="0 0 500 500" style="enable-background:new 0 0 500 500;" xml:space="preserve">
<style type="text/css">
	.st0{fill:#FFFFFF;}
</style>
<path class="st0" d="M264.9,495c-10.2,0-20.4,0-30.6,0c-3.1-0.4-6.2-0.8-9.4-1.2c-48.3-5.3-91.7-22.9-129.3-53.8
	c-46.9-38.5-76.1-87.7-86.9-147.5c-1.6-8.9-2.5-17.9-3.8-26.8c0-10.2,0-20.4,0-30.6c0.7-5.8,1.3-11.7,2.2-17.5
	c8.9-60.9,36.1-112,82.9-152c59.1-50.5,127.8-69.5,204.1-55.5C432,35.5,519.5,170.9,487.5,307.2c-22.1,93.9-101,168.1-195.7,184
	C282.8,492.8,273.8,493.8,264.9,495z M465.5,250.5c0-119-97-216-216-215.9C130.7,34.6,33.9,131.3,33.7,250.2
	c-0.3,118.9,96.7,216,215.7,216.2C368.4,466.5,465.5,369.5,465.5,250.5z"/>
<path class="st0" d="M235.3,207.4c0-13.8,0-27.7,0-41.5c0-9.2,6-15.7,14.3-15.7c8.3,0,14.3,6.5,14.3,15.8c0,24.7,0.1,49.3-0.1,74
	c0,3.3,1,5.6,3.3,7.9c25.7,25.6,51.4,51.3,77,76.9c4.2,4.2,6.7,8.9,5.2,15c-2.6,10.3-14.2,14.4-22.7,8c-1.3-1-2.4-2.1-3.5-3.3
	c-27.1-27.1-54.2-54.3-81.4-81.3c-4.6-4.6-6.8-9.5-6.7-16.1C235.5,233.8,235.3,220.6,235.3,207.4z"/>
<path class="st0" d="M263.9,93.2c0,4.6,0.1,9.2,0,13.8c-0.2,8.4-6.5,14.6-14.5,14.5c-7.8-0.1-14-6.3-14.1-14.4
	c-0.1-9.5-0.2-19.1,0-28.6c0.1-8.1,6.5-14.2,14.3-14.3c7.8,0,14.1,6.1,14.3,14.2C264,83.3,263.9,88.2,263.9,93.2z"/>
<path class="st0" d="M91.9,236.1c4.8,0,9.5-0.1,14.3,0c8.1,0.2,14.3,6.4,14.4,14.2c0.1,7.8-6,14.2-14.1,14.4
	c-9.7,0.2-19.4,0.2-29.1,0c-8-0.2-14.2-6.6-14.1-14.4c0.1-7.8,6.2-14,14.4-14.2C82.4,236,87.2,236.1,91.9,236.1z"/>
<path class="st0" d="M406.9,264.8c-4.6,0-9.2,0.1-13.8,0c-8.4-0.2-14.6-6.5-14.5-14.5c0.1-7.8,6.3-14,14.4-14.1
	c9.5-0.1,19.1-0.2,28.6,0c8.1,0.1,14.3,6.4,14.3,14.2c0,7.8-6.1,14.1-14.2,14.4C416.8,264.9,411.8,264.8,406.9,264.8z"/>
<path class="st0" d="M263.9,408.4c0,4.6,0.1,9.2,0,13.8c-0.2,8.4-6.5,14.6-14.5,14.5c-7.8-0.1-13.9-6.3-14.1-14.5
	c-0.1-9.5-0.2-19.1,0-28.6c0.1-8.1,6.5-14.2,14.3-14.3c7.8,0,14.1,6.1,14.3,14.2C264,398.6,263.9,403.5,263.9,408.4z"/>
<path class="st0" d="M385.4,372.1c0,8-6.2,14.2-14.3,14.1c-7.9,0-14.3-6.4-14.3-14.3c0-7.8,6.7-14.3,14.4-14.3
	C379.1,357.7,385.4,364.1,385.4,372.1z"/>
<path class="st0" d="M113.8,128.7c0.1-8,6.4-14.1,14.4-14c7.9,0.1,14.3,6.5,14.1,14.4c-0.2,7.8-6.8,14.3-14.5,14.1
	C119.9,143.1,113.7,136.7,113.8,128.7z"/>
<path class="st0" d="M371.4,114.7c7.9,0.1,14.1,6.4,14,14.4c-0.1,7.9-6.7,14.3-14.4,14.2c-7.7-0.2-14.3-6.9-14.2-14.6
	C357,120.9,363.5,114.6,371.4,114.7z"/>
<path class="st0" d="M128.2,386.3c-8,0.1-14.3-6.1-14.4-14c-0.1-7.9,6.2-14.4,14-14.6c7.6-0.1,14.4,6.5,14.5,14.2
	C142.5,379.6,136.1,386.2,128.2,386.3z"/>
</svg>
